REM DIRINDEX 1\6,1\2\7,1\2\8,1\2\9,1\3\10,1\3\11,1\4\12,1\4\13,1\4\14,1\5\15,1\5\16,1\5\17
REM DIRNAME cjc041,folder01,folder02,folder03,folder04,folder05,folder06,folder07,folder08,folder09,folder10,folder11,folder12,folder13,folder14,folder15,folder16
TITLE ""
FILE "3Q_t_0504-0519.mp3" MP3
  TRACK 01 AUDIO
    TITLE "10:cjc041_2615"
    INDEX 01 00:00:00
  TRACK 02 AUDIO
    TITLE "0:"
    INDEX 01 00:00:74
  TRACK 03 AUDIO
    TITLE "11:cjc041_2616"
    INDEX 01 00:01:58
  TRACK 04 AUDIO
    TITLE "0:"
    INDEX 01 00:05:48
  TRACK 05 AUDIO
    TITLE "10:cjc041_2617"
    INDEX 01 00:06:28
  TRACK 06 AUDIO
    TITLE "0:"
    INDEX 01 00:07:41
  TRACK 07 AUDIO
    TITLE "11:cjc041_2618"
    INDEX 01 00:08:19
  TRACK 08 AUDIO
    TITLE "0:"
    INDEX 01 00:10:63
  TRACK 09 AUDIO
    TITLE "10:cjc041_2619"
    INDEX 01 00:11:42
  TRACK 10 AUDIO
    TITLE "0:"
    INDEX 01 00:12:56
  TRACK 11 AUDIO
    TITLE "11:cjc041_2620"
    INDEX 01 00:13:35
  TRACK 12 AUDIO
    TITLE "0:"
    INDEX 01 00:14:41
  TRACK 13 AUDIO
    TITLE "10:cjc041_2621"
    INDEX 01 00:15:19
  TRACK 14 AUDIO
    TITLE "0:"
    INDEX 01 00:16:30
  TRACK 15 AUDIO
    TITLE "11:cjc041_2622"
    INDEX 01 00:17:08
  TRACK 16 AUDIO
    TITLE "0:"
    INDEX 01 00:18:23
  TRACK 17 AUDIO
    TITLE "10:cjc041_2623"
    INDEX 01 00:19:03
  TRACK 18 AUDIO
    TITLE "0:"
    INDEX 01 00:20:18
  TRACK 19 AUDIO
    TITLE "11:cjc041_2624"
    INDEX 01 00:20:67
  TRACK 20 AUDIO
    TITLE "0:"
    INDEX 01 00:23:16
  TRACK 21 AUDIO
    TITLE "10:cjc041_2625"
    INDEX 01 00:23:71
  TRACK 22 AUDIO
    TITLE "0:"
    INDEX 01 00:25:21
  TRACK 23 AUDIO
    TITLE "11:cjc041_2626"
    INDEX 01 00:26:05
  TRACK 24 AUDIO
    TITLE "0:"
    INDEX 01 00:27:06
  TRACK 25 AUDIO
    TITLE "10:cjc041_2627"
    INDEX 01 00:27:63
  TRACK 26 AUDIO
    TITLE "0:"
    INDEX 01 00:29:11
  TRACK 27 AUDIO
    TITLE "11:cjc041_2628"
    INDEX 01 00:29:66
  TRACK 28 AUDIO
    TITLE "0:"
    INDEX 01 00:30:59
  TRACK 29 AUDIO
    TITLE "10:cjc041_2629"
    INDEX 01 00:31:41
  TRACK 30 AUDIO
    TITLE "0:"
    INDEX 01 00:32:41
  TRACK 31 AUDIO
    TITLE "11:cjc041_2630"
    INDEX 01 00:33:22
  TRACK 32 AUDIO
    TITLE "0:"
    INDEX 01 00:35:51
  TRACK 33 AUDIO
    TITLE "10:cjc041_2631"
    INDEX 01 00:36:29
  TRACK 34 AUDIO
    TITLE "0:"
    INDEX 01 00:37:24
  TRACK 35 AUDIO
    TITLE "11:cjc041_2632"
    INDEX 01 00:38:08
  TRACK 36 AUDIO
    TITLE "0:"
    INDEX 01 00:39:00
  TRACK 37 AUDIO
    TITLE "10:cjc041_2633"
    INDEX 01 00:39:45
  TRACK 38 AUDIO
    TITLE "0:"
    INDEX 01 00:40:56
  TRACK 39 AUDIO
    TITLE "11:cjc041_2634"
    INDEX 01 00:41:38
  TRACK 40 AUDIO
    TITLE "0:"
    INDEX 01 00:42:45
  TRACK 41 AUDIO
    TITLE "10:cjc041_2635"
    INDEX 01 00:43:27
  TRACK 42 AUDIO
    TITLE "0:"
    INDEX 01 00:44:48
  TRACK 43 AUDIO
    TITLE "11:cjc041_2636"
    INDEX 01 00:45:22
  TRACK 44 AUDIO
    TITLE "0:"
    INDEX 01 00:46:11
  TRACK 45 AUDIO
    TITLE "10:cjc041_2637"
    INDEX 01 00:46:68
  TRACK 46 AUDIO
    TITLE "0:"
    INDEX 01 00:47:72
  TRACK 47 AUDIO
    TITLE "11:cjc041_2638"
    INDEX 01 00:48:51
  TRACK 48 AUDIO
    TITLE "0:"
    INDEX 01 00:49:74
  TRACK 49 AUDIO
    TITLE "10:cjc041_2639"
    INDEX 01 00:50:54
  TRACK 50 AUDIO
    TITLE "0:"
    INDEX 01 00:51:63
  TRACK 51 AUDIO
    TITLE "11:cjc041_2640"
    INDEX 01 00:52:37
  TRACK 52 AUDIO
    TITLE "0:"
    INDEX 01 00:53:45
  TRACK 53 AUDIO
    TITLE "10:cjc041_2641"
    INDEX 01 00:54:19
  TRACK 54 AUDIO
    TITLE "0:"
    INDEX 01 00:55:30
  TRACK 55 AUDIO
    TITLE "11:cjc041_2642"
    INDEX 01 00:56:06
  TRACK 56 AUDIO
    TITLE "0:"
    INDEX 01 00:56:71
  TRACK 57 AUDIO
    TITLE "10:cjc041_2643"
    INDEX 01 00:57:50
  TRACK 58 AUDIO
    TITLE "0:"
    INDEX 01 00:59:04
  TRACK 59 AUDIO
    TITLE "11:cjc041_2644"
    INDEX 01 00:59:53
  TRACK 60 AUDIO
    TITLE "0:"
    INDEX 01 01:02:32
  TRACK 61 AUDIO
    TITLE "10:cjc041_2645"
    INDEX 01 01:03:12
  TRACK 62 AUDIO
    TITLE "0:"
    INDEX 01 01:04:45
  TRACK 63 AUDIO
    TITLE "11:cjc041_2646"
    INDEX 01 01:05:24
  TRACK 64 AUDIO
    TITLE "0:"
    INDEX 01 01:06:36
